# xmcd
#
# Track frame offsets:
#	150
#	17792
#	35450
#	56917
#	73457
#	88235
#	106065
#	122742
#	139940
#	156810
#
# Disc length: 2299 seconds
#
# Revision: 1
# Processed by: cddbd v1.5.2PL0 Copyright (c) Steve Scherf et al.
# Submitted via: EZCDAudioConverter 6.0.5.1
#
DISCID=9008f90a
DTITLE=Carole Ann King - Cowgirl De Ville
DYEAR=1994
DGENRE=Country
TTITLE0=Cowgirl de ville
TTITLE1=Country-roll
TTITLE2=J'aime la mélodie
TTITLE3=L'amour ne ment jamais
TTITLE4=J'oublie tout
TTITLE5=Je pense toujours à toi
TTITLE6=Tout comme avant
TTITLE7=Home sweet home
TTITLE8=Save my love
TTITLE9=Just' un autre homme
EXTD=
EXTT0=
EXTT1=
EXTT2=
EXTT3=
EXTT4=
EXTT5=
EXTT6=
EXTT7=
EXTT8=
EXTT9=
PLAYORDER=
